<svg width="13" height="13" viewBox="0 0 13 13" fill="none" xmlns="http://www.w3.org/2000/svg">
<path d="M12.8921 3.50554C12.8117 3.3876 12.7038 3.32863 12.5684 3.32863H3.94824L3.28809 1.00907C3.22884 0.799395 3.14844 0.620296 3.04688 0.471774C2.94531 0.323253 2.8374 0.218414 2.72314 0.157258C2.60889 0.0961021 2.50944 0.0546035 2.4248 0.0327621C2.34017 0.0109207 2.25553 0 2.1709 0H0.431641C0.321615 0 0.228516 0.0393145 0.152344 0.117944C0.0761719 0.196573 0.0380859 0.297043 0.0380859 0.419355C0.0380859 0.489247 0.055013 0.556956 0.0888672 0.62248C0.122721 0.688004 0.171387 0.738239 0.234863 0.773185C0.29834 0.808132 0.363932 0.825605 0.431641 0.825605H2.1709C2.20475 0.825605 2.23649 0.829973 2.26611 0.83871C2.29574 0.847446 2.33594 0.884577 2.38672 0.950101C2.4375 1.01562 2.47982 1.11391 2.51367 1.24496L4.76074 9.7631C4.77767 9.81552 4.80518 9.86576 4.84326 9.91381C4.88135 9.96186 4.92578 9.99899 4.97656 10.0252C5.02734 10.0514 5.08236 10.0645 5.1416 10.0645H10.626C10.7106 10.0645 10.7889 10.0383 10.8608 9.98589C10.9328 9.93347 10.9814 9.86794 11.0068 9.78931L12.9492 3.89214C12.9915 3.75235 12.9725 3.62349 12.8921 3.50554ZM10.3467 9.22581H5.45898L4.16406 4.16734H11.9844L10.3467 9.22581ZM9.54688 10.9032C9.26758 10.9032 9.02848 11.0059 8.82959 11.2112C8.6307 11.4165 8.53125 11.6633 8.53125 11.9516C8.53125 12.2399 8.6307 12.4867 8.82959 12.692C9.02848 12.8973 9.26758 13 9.54688 13C9.82617 13 10.0653 12.8973 10.2642 12.692C10.4631 12.4867 10.5625 12.2399 10.5625 11.9516C10.5625 11.6633 10.4631 11.4165 10.2642 11.2112C10.0653 11.0059 9.82617 10.9032 9.54688 10.9032ZM5.89063 10.9032C5.70443 10.9032 5.53304 10.9513 5.37647 11.0474C5.21989 11.1435 5.09717 11.2702 5.0083 11.4274C4.91943 11.5847 4.875 11.7594 4.875 11.9516C4.875 12.2399 4.97445 12.4867 5.17334 12.692C5.37223 12.8973 5.61133 13 5.89063 13C6.16992 13 6.40902 12.8973 6.60791 12.692C6.8068 12.4867 6.90625 12.2399 6.90625 11.9516C6.90625 11.8817 6.8999 11.8118 6.88721 11.7419C6.87451 11.672 6.85547 11.6065 6.83008 11.5454C6.80469 11.4842 6.77295 11.4252 6.73486 11.3684C6.69678 11.3117 6.65446 11.2592 6.60791 11.2112C6.56136 11.1631 6.51058 11.1195 6.45557 11.0801C6.40055 11.0408 6.34342 11.0081 6.28418 10.9819C6.22494 10.9556 6.16146 10.936 6.09375 10.9229C6.02604 10.9098 5.95833 10.9032 5.89063 10.9032Z" fill="black"/>
</svg>
