<svg width="11" height="11" viewBox="0 0 11 11" fill="none" xmlns="http://www.w3.org/2000/svg">
<path d="M9.51366 6.04165C9.39449 6.04165 9.26991 6.00373 9.15074 5.97665C8.90961 5.92273 8.67252 5.85214 8.44116 5.7654C8.18987 5.67398 7.91366 5.67873 7.66566 5.77873C7.41766 5.87872 7.21541 6.06691 7.09783 6.30706L6.97866 6.55623C6.4526 6.25788 5.96662 5.89385 5.53241 5.4729C5.11145 5.03868 4.74742 4.5527 4.44908 4.02665L4.69824 3.9129C4.9384 3.79531 5.12658 3.59306 5.22658 3.34506C5.32658 3.09707 5.33133 2.82085 5.23991 2.56956C5.15389 2.33612 5.08332 2.09727 5.02866 1.85456C5.00158 1.7354 4.97991 1.61081 4.96366 1.49165C4.89788 1.11011 4.69804 0.76459 4.40012 0.517318C4.1022 0.270045 3.72579 0.137268 3.33866 0.142896H1.70824C1.47925 0.142596 1.25278 0.190697 1.04368 0.284046C0.834581 0.377394 0.647571 0.513883 0.49491 0.684563C0.339083 0.859875 0.223056 1.06684 0.154799 1.29125C0.0865428 1.51565 0.0676754 1.75218 0.0994934 1.98456C0.393937 4.23905 1.42398 6.33342 3.02991 7.9429C4.63939 9.54882 6.73375 10.5789 8.98824 10.8733C9.05856 10.8787 9.12918 10.8787 9.19949 10.8733C9.59893 10.8739 9.98458 10.7273 10.2828 10.4616C10.4535 10.309 10.59 10.122 10.6833 9.91288C10.7767 9.70377 10.8248 9.4773 10.8245 9.24831V7.62331C10.8216 7.24904 10.6895 6.88725 10.4507 6.59907C10.2119 6.31089 9.88088 6.114 9.51366 6.04165ZM9.77908 9.29165C9.7789 9.36723 9.7629 9.44195 9.73212 9.51098C9.70133 9.58001 9.65644 9.64184 9.60033 9.69248C9.54096 9.74657 9.47031 9.78678 9.39349 9.8102C9.31667 9.83362 9.2356 9.83966 9.15616 9.8279C7.13481 9.5639 5.25629 8.64273 3.80991 7.20623C2.36229 5.75861 1.43309 3.87355 1.16658 1.84373C1.15481 1.76429 1.16085 1.68322 1.18428 1.6064C1.2077 1.52958 1.24791 1.45893 1.30199 1.39956C1.35325 1.34277 1.41595 1.29748 1.48597 1.26667C1.55599 1.23586 1.63175 1.22023 1.70824 1.22081H3.33324C3.45846 1.21775 3.58086 1.25818 3.67962 1.33521C3.77838 1.41225 3.84739 1.52112 3.87491 1.64331C3.87491 1.78956 3.92366 1.94123 3.95616 2.08748C4.01876 2.37124 4.10204 2.65004 4.20533 2.92165L3.44699 3.27915C3.31665 3.33898 3.21535 3.44807 3.16533 3.58248C3.11115 3.71435 3.11115 3.86227 3.16533 3.99415C3.94489 5.66397 5.28717 7.00625 6.95699 7.78581C7.08887 7.83999 7.23678 7.83999 7.36866 7.78581C7.50307 7.73578 7.61216 7.63449 7.67199 7.50415L8.01324 6.74581C8.29269 6.84771 8.5786 6.93095 8.86908 6.99498C9.00991 7.02748 9.16158 7.05456 9.30783 7.07623C9.43002 7.10375 9.53889 7.17276 9.61593 7.27152C9.69296 7.37028 9.73339 7.49268 9.73033 7.6179L9.77908 9.29165ZM6.58324 0.083313H6.20408C6.06042 0.095524 5.92749 0.164303 5.83455 0.27452C5.7416 0.384737 5.69624 0.527362 5.70845 0.671021C5.72066 0.81468 5.78944 0.947605 5.89966 1.04055C6.00987 1.1335 6.1525 1.17886 6.29616 1.16665H6.58324C7.4452 1.16665 8.27185 1.50906 8.88134 2.11855C9.49083 2.72804 9.83324 3.55469 9.83324 4.41665V4.70373C9.82123 4.84663 9.86638 4.98845 9.95878 5.09812C10.0512 5.20778 10.1833 5.27633 10.3262 5.28873H10.3695C10.5051 5.28928 10.636 5.23895 10.7363 5.14769C10.8365 5.05642 10.899 4.93086 10.9112 4.79581V4.41665C10.9112 3.26831 10.4554 2.16693 9.64387 1.35443C8.83238 0.541928 7.73158 0.0847484 6.58324 0.083313ZM7.66658 4.41665C7.66658 4.56031 7.72364 4.69808 7.82523 4.79966C7.92681 4.90124 8.06458 4.95831 8.20824 4.95831C8.3519 4.95831 8.48968 4.90124 8.59126 4.79966C8.69284 4.69808 8.74991 4.56031 8.74991 4.41665C8.74991 3.84201 8.52164 3.29091 8.11531 2.88458C7.70898 2.47825 7.15788 2.24998 6.58324 2.24998C6.43958 2.24998 6.30181 2.30705 6.20023 2.40863C6.09864 2.51021 6.04158 2.64799 6.04158 2.79165C6.04158 2.93531 6.09864 3.07308 6.20023 3.17466C6.30181 3.27624 6.43958 3.33331 6.58324 3.33331C6.87056 3.33331 7.14611 3.44745 7.34927 3.65061C7.55244 3.85378 7.66658 4.12933 7.66658 4.41665Z" fill="black"/>
</svg>
