<svg width="11" height="11" viewBox="0 0 11 11" fill="none" xmlns="http://www.w3.org/2000/svg">
<path d="M6.20433 5.61915C6.49335 5.36897 6.72517 5.05954 6.88405 4.71187C7.04294 4.36419 7.12517 3.98641 7.12516 3.60415C7.12516 2.88585 6.83982 2.19698 6.33191 1.68907C5.824 1.18115 5.13512 0.895813 4.41683 0.895813C3.69853 0.895813 3.00966 1.18115 2.50175 1.68907C1.99384 2.19698 1.7085 2.88585 1.7085 3.60415C1.70849 3.98641 1.79072 4.36419 1.94961 4.71187C2.10849 5.05954 2.34031 5.36897 2.62933 5.61915C1.87107 5.9625 1.22775 6.51697 0.776277 7.21627C0.324806 7.91558 0.0842933 8.73011 0.0834961 9.56248C0.0834961 9.70614 0.140564 9.84391 0.242147 9.9455C0.343729 10.0471 0.481504 10.1041 0.625163 10.1041C0.768822 10.1041 0.906597 10.0471 1.00818 9.9455C1.10976 9.84391 1.16683 9.70614 1.16683 9.56248C1.16683 8.70053 1.50924 7.87388 2.11873 7.26438C2.72823 6.65489 3.55488 6.31248 4.41683 6.31248C5.27878 6.31248 6.10543 6.65489 6.71493 7.26438C7.32442 7.87388 7.66683 8.70053 7.66683 9.56248C7.66683 9.70614 7.7239 9.84391 7.82548 9.9455C7.92706 10.0471 8.06484 10.1041 8.2085 10.1041C8.35216 10.1041 8.48993 10.0471 8.59151 9.9455C8.6931 9.84391 8.75016 9.70614 8.75016 9.56248C8.74937 8.73011 8.50885 7.91558 8.05738 7.21627C7.60591 6.51697 6.96259 5.9625 6.20433 5.61915ZM4.41683 5.22915C4.09544 5.22915 3.78126 5.13384 3.51403 4.95528C3.2468 4.77673 3.03852 4.52294 2.91553 4.22601C2.79253 3.92908 2.76035 3.60234 2.82305 3.28712C2.88575 2.97191 3.04052 2.68236 3.26778 2.4551C3.49504 2.22784 3.78459 2.07307 4.09981 2.01037C4.41503 1.94767 4.74176 1.97985 5.03869 2.10284C5.33562 2.22583 5.58941 2.43411 5.76797 2.70134C5.94653 2.96857 6.04183 3.28275 6.04183 3.60415C6.04183 4.03512 5.87063 4.44845 5.56588 4.7532C5.26113 5.05794 4.84781 5.22915 4.41683 5.22915ZM10.7597 3.9454C10.7094 3.89463 10.6495 3.85433 10.5835 3.82683C10.5175 3.79933 10.4467 3.78517 10.3752 3.78517C10.3037 3.78517 10.2329 3.79933 10.1669 3.82683C10.1008 3.85433 10.0409 3.89463 9.99058 3.9454L8.90725 5.02873L8.57141 4.68748C8.52106 4.63671 8.46115 4.59641 8.39514 4.56891C8.32913 4.54141 8.25834 4.52726 8.18683 4.52726C8.11532 4.52726 8.04453 4.54141 7.97852 4.56891C7.91251 4.59641 7.8526 4.63671 7.80225 4.68748C7.70136 4.78897 7.64473 4.92625 7.64473 5.06935C7.64473 5.21246 7.70136 5.34974 7.80225 5.45123L8.52808 6.17706C8.62957 6.27795 8.76685 6.33458 8.90996 6.33458C9.05306 6.33458 9.19034 6.27795 9.29183 6.17706L10.7381 4.73081C10.7928 4.6817 10.8369 4.62196 10.8677 4.55525C10.8986 4.48853 10.9156 4.41624 10.9176 4.34276C10.9196 4.26928 10.9067 4.19616 10.8795 4.12784C10.8524 4.05953 10.8116 3.99745 10.7597 3.9454Z" fill="black"/>
</svg>
