<svg width="24" height="30" viewBox="0 0 24 30" fill="none" xmlns="http://www.w3.org/2000/svg">
<path d="M21.0001 30H9.00012C8.40012 30 8.00012 29.6 8.00012 29C8.00012 27.5 7.30012 26.6 6.20012 25.2C5.60012 24.5 4.90012 23.6 4.20012 22.5C2.30012 19.5 0.600119 15.9 0.200119 14.6C-0.199881 13.3 0.10012 12.4 0.50012 11.9C0.90012 11.3 1.70012 11 2.60012 11C3.80012 11 5.00012 12 6.10012 13.3V3C6.10012 1.3 7.40012 0 9.10012 0C10.8001 0 12.1001 1.3 12.1001 3V7.2C12.4001 7.1 12.7001 7 13.1001 7C14.2001 7 15.1001 7.6 15.6001 8.4C16.0001 8.1 16.5001 8 17.0001 8C18.4001 8 19.5001 8.9 19.9001 10.2C20.2001 10.1 20.6001 10 21.0001 10C22.7001 10 24.0001 11.3 24.0001 13V16C24.0001 18.6 23.5001 20.7 23.0001 22.7C22.5001 24.7 22.0001 26.6 22.0001 29C22.0001 29.6 21.6001 30 21.0001 30ZM9.90012 28H20.0001C20.1001 25.8 20.6001 24 21.0001 22.2C21.5001 20.2 22.0001 18.3 22.0001 16V13C22.0001 12.4 21.6001 12 21.0001 12C20.4001 12 20.0001 12.4 20.0001 13V14C20.0001 14.6 19.6001 15 19.0001 15C18.4001 15 18.0001 14.6 18.0001 14V11C18.0001 10.4 17.6001 10 17.0001 10C16.4001 10 16.0001 10.4 16.0001 11V13C16.0001 13.6 15.6001 14 15.0001 14C14.4001 14 14.0001 13.6 14.0001 13V10C14.0001 9.4 13.6001 9 13.0001 9C12.4001 9 12.0001 9.4 12.0001 10V12C12.0001 12.6 11.6001 13 11.0001 13C10.4001 13 10.0001 12.6 10.0001 12V3C10.0001 2.4 9.60012 2 9.00012 2C8.40012 2 8.00012 2.4 8.00012 3V18C8.00012 18.6 7.60012 19 7.00012 19C6.40012 19 6.00012 18.6 6.00012 18V17.2C5.10012 14.9 3.20012 13 2.50012 13C2.30012 13 2.10012 13 2.00012 13.1C1.90012 13.2 1.90012 13.5 2.00012 14C2.30012 15.1 3.80012 18.3 5.80012 21.5C6.40012 22.5 7.00012 23.2 7.60012 24C8.70012 25.2 9.70012 26.3 9.90012 28Z" fill="black"/>
</svg>
