<svg width="18" height="18" viewBox="0 0 18 18" fill="none" xmlns="http://www.w3.org/2000/svg">
<path d="M17.0999 15.2999V2.6999C17.0999 1.7099 16.2872 0.899902 15.2954 0.899902H2.7044C1.6694 0.899902 0.899902 1.6676 0.899902 2.6999V15.2999C0.899902 16.3331 1.6694 17.0999 2.7044 17.0999H15.2954C15.773 17.0992 16.2309 16.9095 16.569 16.5722C16.9071 16.2349 17.098 15.7775 17.0999 15.2999ZM13.6655 10.4462C13.6655 10.4462 14.6843 11.4515 14.9354 11.9177C14.9426 11.9276 14.9453 11.9366 14.948 11.9402C15.0497 12.1112 15.0758 12.2462 15.0245 12.3452C14.9399 12.5099 14.6519 12.5927 14.5538 12.5999H12.7547C12.6287 12.5999 12.3677 12.5675 12.0509 12.3488C11.8079 12.1796 11.5676 11.8997 11.3336 11.627C10.9844 11.222 10.682 10.871 10.3778 10.871C10.3392 10.8709 10.3009 10.8773 10.2644 10.8899C10.0331 10.9637 9.7397 11.2922 9.7397 12.1697C9.7397 12.4442 9.5237 12.6008 9.3707 12.6008H8.5463C8.2655 12.6008 6.803 12.5027 5.5079 11.1356C3.9185 9.4616 2.4911 6.1037 2.4785 6.074C2.3885 5.8571 2.5748 5.7392 2.7773 5.7392H4.5953C4.8392 5.7392 4.9175 5.8868 4.9733 6.0191C5.0363 6.1694 5.2739 6.776 5.6627 7.4582C6.2954 8.5679 6.6851 9.0197 6.9956 9.0197C7.05366 9.01937 7.11067 9.00419 7.1612 8.9756C7.5671 8.7515 7.4915 7.3043 7.4735 7.0055C7.4735 6.9488 7.4726 6.3584 7.2656 6.0749C7.1162 5.8697 6.8633 5.7914 6.7103 5.7617C6.77269 5.67573 6.85479 5.60598 6.9497 5.5583C7.2278 5.4197 7.7291 5.3999 8.2277 5.3999H8.5049C9.0458 5.4071 9.1862 5.4422 9.3815 5.4917C9.7766 5.5862 9.7847 5.8427 9.7496 6.7157C9.7397 6.9641 9.7289 7.2458 9.7289 7.5761C9.7289 7.6472 9.7262 7.7255 9.7262 7.8065C9.7136 8.2529 9.6992 8.7578 10.0142 8.9648C10.055 8.99031 10.102 9.00402 10.1501 9.0044C10.2599 9.0044 10.5884 9.0044 11.4785 7.4771C11.87 6.803 12.1715 6.0074 12.1922 5.948C12.2236 5.88378 12.2692 5.82748 12.3254 5.7833C12.3715 5.75936 12.4229 5.74729 12.4748 5.7482H14.6123C14.8463 5.7482 15.0047 5.7833 15.0344 5.8724C15.0857 6.0155 15.0245 6.452 14.048 7.7714L13.6133 8.3474C12.7277 9.5066 12.7277 9.566 13.6655 10.4462Z" fill="black"/>
</svg>
